<?xml version="1.0" encoding="UTF-8"?>
<!--Generator: Apple Native CoreSVG 326-->
<!DOCTYPE svg PUBLIC "-//W3C//DTD SVG 1.1//EN" "http://www.w3.org/Graphics/SVG/1.1/DTD/svg11.dtd">
<svg version="1.1" xmlns="http://www.w3.org/2000/svg" xmlns:xlink="http://www.w3.org/1999/xlink"
    viewBox="0 0 20.8933 20.8689">
    <g>
        <rect height="20.8689" opacity="0" width="20.8933" x="0" y="0" />
        <path
            d="M9.45791 20.8606L11.4268 20.8606C12.1842 20.8606 12.7711 20.4063 12.9392 19.6861L13.3589 17.8579L13.676 17.7473L15.2528 18.73C15.8962 19.1161 16.6264 19.0352 17.1597 18.4915L18.5325 17.1291C19.0679 16.5958 19.1592 15.8552 18.7627 15.2305L17.7697 13.6454L17.8803 13.3572L19.7084 12.9376C20.4287 12.7695 20.8933 12.1721 20.8933 11.4251L20.8933 9.49766C20.8933 8.7506 20.439 8.16363 19.7084 7.98516L17.901 7.5448L17.78 7.24626L18.7731 5.66119C19.1695 5.02608 19.0886 4.29592 18.5428 3.75226L17.17 2.38979C16.6471 1.85648 15.9169 1.76524 15.2736 2.15132L13.6864 3.12369L13.3589 3.0027L12.9392 1.17455C12.7711 0.454322 12.1842 0 11.4268 0L9.45791 0C8.7005 0 8.12388 0.454322 7.95576 1.17455L7.53611 3.0027L7.19615 3.12369L5.60899 2.15132C4.97599 1.76524 4.2437 1.85648 3.71251 2.38979L2.35005 3.75226C1.80428 4.29592 1.72338 5.02608 2.11981 5.66119L3.10253 7.24626L2.98153 7.5448L1.1762 7.98516C0.455986 8.16363 0.00166382 8.7506 0.00166382 9.49766L0.00166382 11.4251C0.00166382 12.1721 0.466337 12.7695 1.1762 12.9376L3.00224 13.3572L3.11287 13.6454L2.13018 15.2305C1.73372 15.8552 1.82498 16.5958 2.36039 17.1291L3.72286 18.4915C4.25407 19.0352 4.9967 19.1161 5.6297 18.73L7.21686 17.7473L7.53611 17.8579L7.95576 19.6861C8.12388 20.4063 8.7005 20.8606 9.45791 20.8606ZM9.61549 19.3417C9.44867 19.3417 9.36105 19.2686 9.33804 19.1185L8.74433 16.7015C8.1489 16.5458 7.59891 16.3217 7.17546 16.048L5.05136 17.3665C4.92826 17.4396 4.79692 17.4354 4.68839 17.3186L3.54159 16.1614C3.42482 16.0529 3.4206 15.9361 3.50611 15.8006L4.80397 13.6847C4.58408 13.2737 4.32682 12.7237 4.17117 12.1283L1.74379 11.545C1.59367 11.522 1.52059 11.4343 1.52059 11.2675L1.52059 9.63454C1.52059 9.45736 1.5833 9.39045 1.74379 9.34673L4.16081 8.77373C4.31647 8.1369 4.61513 7.56622 4.78325 7.1966L3.49576 5.09111C3.39989 4.94519 3.40411 4.82844 3.52088 4.70956L4.67805 3.57308C4.79692 3.46668 4.8972 3.45211 5.05136 3.52516L7.15475 4.81265C7.57822 4.56996 8.16961 4.32516 8.75468 4.15915L9.33804 1.74213C9.36105 1.59201 9.44867 1.51894 9.61549 1.51894L11.2795 1.51894C11.4485 1.51894 11.534 1.58779 11.557 1.74213L12.1403 4.17986C12.7503 4.33551 13.2857 4.58031 13.7174 4.823L15.8415 3.52516C15.9853 3.45211 16.0856 3.46668 16.2148 3.57308L17.372 4.70956C17.4784 4.82844 17.493 4.94519 17.3971 5.09111L16.0993 7.1966C16.282 7.56622 16.5682 8.13479 16.7238 8.77373L19.1491 9.34673C19.3117 9.39045 19.364 9.45736 19.364 9.63454L19.364 11.2675C19.364 11.4343 19.3013 11.522 19.1491 11.545L16.7135 12.1283C16.5682 12.7258 16.313 13.2737 16.0786 13.6847L17.3868 15.8006C17.4723 15.9361 17.4681 16.0529 17.3513 16.1614L16.2045 17.3186C16.0856 17.4354 15.9543 17.4396 15.8415 17.3665L13.7071 16.048C13.2961 16.3217 12.74 16.5458 12.1403 16.7015L11.557 19.1185C11.534 19.2729 11.4485 19.3417 11.2795 19.3417ZM10.4423 14.1458C12.5005 14.1458 14.1599 12.4864 14.1599 10.4282C14.1599 8.37005 12.5005 6.71063 10.4423 6.71063C8.38416 6.71063 6.72476 8.37005 6.72476 10.4282C6.72476 12.4864 8.38416 14.1458 10.4423 14.1458ZM10.4423 12.6372C9.22549 12.6372 8.2437 11.6451 8.2437 10.4282C8.2437 9.21136 9.22549 8.21922 10.4423 8.21922C11.6592 8.21922 12.6513 9.21136 12.6513 10.4282C12.6513 11.6451 11.6592 12.6372 10.4423 12.6372Z"
            fill="white" fill-opacity="0.85" />
    </g>
</svg>