<svg xmlns="http://www.w3.org/2000/svg" xmlns:xlink="http://www.w3.org/1999/xlink" width="500" zoomAndPan="magnify" viewBox="0 0 375 374.999991" height="500" preserveAspectRatio="xMidYMid meet" version="1.0"><defs><clipPath id="9c6ae52c2e"><path d="M 67.882812 59.285156 L 284.855469 59.285156 L 284.855469 343 L 67.882812 343 Z M 67.882812 59.285156 " clip-rule="nonzero"/></clipPath><clipPath id="a5f896ddab"><path d="M 85.132812 59.285156 L 267.605469 59.285156 C 272.179688 59.285156 276.566406 61.101562 279.800781 64.335938 C 283.039062 67.574219 284.855469 71.960938 284.855469 76.535156 L 284.855469 325.589844 C 284.855469 330.164062 283.039062 334.554688 279.800781 337.789062 C 276.566406 341.023438 272.179688 342.839844 267.605469 342.839844 L 85.132812 342.839844 C 80.554688 342.839844 76.167969 341.023438 72.933594 337.789062 C 69.699219 334.554688 67.882812 330.164062 67.882812 325.589844 L 67.882812 76.535156 C 67.882812 71.960938 69.699219 67.574219 72.933594 64.335938 C 76.167969 61.101562 80.554688 59.285156 85.132812 59.285156 Z M 85.132812 59.285156 " clip-rule="nonzero"/></clipPath><clipPath id="afa53ca0c2"><path d="M 67.882812 59.285156 L 284.632812 59.285156 L 284.632812 342.785156 L 67.882812 342.785156 Z M 67.882812 59.285156 " clip-rule="nonzero"/></clipPath><clipPath id="ce2445569b"><path d="M 85.132812 59.285156 L 267.601562 59.285156 C 272.175781 59.285156 276.5625 61.101562 279.800781 64.335938 C 283.035156 67.570312 284.851562 71.960938 284.851562 76.535156 L 284.851562 325.582031 C 284.851562 330.15625 283.035156 334.542969 279.800781 337.78125 C 276.5625 341.015625 272.175781 342.832031 267.601562 342.832031 L 85.132812 342.832031 C 80.558594 342.832031 76.171875 341.015625 72.9375 337.78125 C 69.703125 334.542969 67.882812 330.15625 67.882812 325.582031 L 67.882812 76.535156 C 67.882812 71.960938 69.703125 67.570312 72.9375 64.335938 C 76.171875 61.101562 80.558594 59.285156 85.132812 59.285156 Z M 85.132812 59.285156 " clip-rule="nonzero"/></clipPath><clipPath id="4ad7056e3d"><path d="M 82.371094 46.308594 L 299.34375 46.308594 L 299.34375 330 L 82.371094 330 Z M 82.371094 46.308594 " clip-rule="nonzero"/></clipPath><clipPath id="d7aeb61bb5"><path d="M 99.621094 46.308594 L 282.09375 46.308594 C 286.667969 46.308594 291.054688 48.125 294.289062 51.359375 C 297.527344 54.59375 299.34375 58.984375 299.34375 63.558594 L 299.34375 312.613281 C 299.34375 317.1875 297.527344 321.578125 294.289062 324.8125 C 291.054688 328.046875 286.667969 329.863281 282.09375 329.863281 L 99.621094 329.863281 C 95.042969 329.863281 90.65625 328.046875 87.421875 324.8125 C 84.1875 321.578125 82.371094 317.1875 82.371094 312.613281 L 82.371094 63.558594 C 82.371094 58.984375 84.1875 54.59375 87.421875 51.359375 C 90.65625 48.125 95.042969 46.308594 99.621094 46.308594 Z M 99.621094 46.308594 " clip-rule="nonzero"/></clipPath><clipPath id="394d10c40e"><path d="M 82.371094 46.308594 L 299.121094 46.308594 L 299.121094 329.808594 L 82.371094 329.808594 Z M 82.371094 46.308594 " clip-rule="nonzero"/></clipPath><clipPath id="82f1367c26"><path d="M 99.621094 46.308594 L 282.089844 46.308594 C 286.664062 46.308594 291.050781 48.125 294.289062 51.359375 C 297.523438 54.59375 299.339844 58.984375 299.339844 63.558594 L 299.339844 312.605469 C 299.339844 317.179688 297.523438 321.566406 294.289062 324.804688 C 291.050781 328.039062 286.664062 329.855469 282.089844 329.855469 L 99.621094 329.855469 C 95.046875 329.855469 90.660156 328.039062 87.425781 324.804688 C 84.191406 321.566406 82.371094 317.179688 82.371094 312.605469 L 82.371094 63.558594 C 82.371094 58.984375 84.191406 54.59375 87.425781 51.359375 C 90.660156 48.125 95.046875 46.308594 99.621094 46.308594 Z M 99.621094 46.308594 " clip-rule="nonzero"/></clipPath><clipPath id="38828418be"><path d="M 99.015625 32.160156 L 315.988281 32.160156 L 315.988281 316 L 99.015625 316 Z M 99.015625 32.160156 " clip-rule="nonzero"/></clipPath><clipPath id="b9a075695a"><path d="M 116.265625 32.160156 L 298.738281 32.160156 C 303.3125 32.160156 307.703125 33.976562 310.9375 37.210938 C 314.171875 40.445312 315.988281 44.835938 315.988281 49.410156 L 315.988281 298.464844 C 315.988281 303.039062 314.171875 307.425781 310.9375 310.664062 C 307.703125 313.898438 303.3125 315.714844 298.738281 315.714844 L 116.265625 315.714844 C 111.691406 315.714844 107.300781 313.898438 104.066406 310.664062 C 100.832031 307.425781 99.015625 303.039062 99.015625 298.464844 L 99.015625 49.410156 C 99.015625 44.835938 100.832031 40.445312 104.066406 37.210938 C 107.300781 33.976562 111.691406 32.160156 116.265625 32.160156 Z M 116.265625 32.160156 " clip-rule="nonzero"/></clipPath><clipPath id="483e53351f"><path d="M 99.019531 32.160156 L 315.765625 32.160156 L 315.765625 315.660156 L 99.019531 315.660156 Z M 99.019531 32.160156 " clip-rule="nonzero"/></clipPath><clipPath id="ee988536b6"><path d="M 116.265625 32.160156 L 298.734375 32.160156 C 303.308594 32.160156 307.699219 33.976562 310.933594 37.210938 C 314.167969 40.445312 315.984375 44.835938 315.984375 49.410156 L 315.984375 298.457031 C 315.984375 303.03125 314.167969 307.417969 310.933594 310.652344 C 307.699219 313.890625 303.308594 315.707031 298.734375 315.707031 L 116.265625 315.707031 C 111.691406 315.707031 107.304688 313.890625 104.070312 310.652344 C 100.835938 307.417969 99.019531 303.03125 99.019531 298.457031 L 99.019531 49.410156 C 99.019531 44.835938 100.835938 40.445312 104.070312 37.210938 C 107.304688 33.976562 111.691406 32.160156 116.265625 32.160156 Z M 116.265625 32.160156 " clip-rule="nonzero"/></clipPath></defs><g clip-path="url(#9c6ae52c2e)"><g clip-path="url(#a5f896ddab)"><path fill="#ffffff" d="M 67.882812 59.285156 L 284.855469 59.285156 L 284.855469 343.214844 L 67.882812 343.214844 Z M 67.882812 59.285156 " fill-opacity="1" fill-rule="nonzero"/></g></g><g clip-path="url(#afa53ca0c2)"><g clip-path="url(#ce2445569b)"><path stroke-linecap="butt" transform="matrix(0.75, 0, 0, 0.75, 67.884149, 59.28494)" fill="none" stroke-linejoin="miter" d="M 22.998221 0.000288191 L 266.289919 0.000288191 C 272.388879 0.000288191 278.237838 2.422164 282.555547 6.734664 C 286.868047 11.047165 289.289922 16.901332 289.289922 23.000291 L 289.289922 355.062834 C 289.289922 361.161793 286.868047 367.010752 282.555547 371.328461 C 278.237838 375.640962 272.388879 378.062837 266.289919 378.062837 L 22.998221 378.062837 C 16.899262 378.062837 11.050303 375.640962 6.737802 371.328461 C 2.425302 367.010752 -0.00178179 361.161793 -0.00178179 355.062834 L -0.00178179 23.000291 C -0.00178179 16.901332 2.425302 11.047165 6.737802 6.734664 C 11.050303 2.422164 16.899262 0.000288191 22.998221 0.000288191 Z M 22.998221 0.000288191 " stroke="#000000" stroke-width="8" stroke-opacity="1" stroke-miterlimit="4"/></g></g><g clip-path="url(#4ad7056e3d)"><g clip-path="url(#d7aeb61bb5)"><path fill="#ffffff" d="M 82.371094 46.308594 L 299.34375 46.308594 L 299.34375 330.238281 L 82.371094 330.238281 Z M 82.371094 46.308594 " fill-opacity="1" fill-rule="nonzero"/></g></g><g clip-path="url(#394d10c40e)"><g clip-path="url(#82f1367c26)"><path stroke-linecap="butt" transform="matrix(0.75, 0, 0, 0.75, 82.372367, 46.308136)" fill="none" stroke-linejoin="miter" d="M 22.998305 0.000610121 L 266.290003 0.000610121 C 272.388963 0.000610121 278.237922 2.422485 282.555631 6.734986 C 286.868131 11.047487 289.290006 16.901654 289.290006 23.000613 L 289.290006 355.063156 C 289.290006 361.162115 286.868131 367.011074 282.555631 371.323575 C 278.237922 375.641284 272.388963 378.063159 266.290003 378.063159 L 22.998305 378.063159 C 16.899346 378.063159 11.050387 375.641284 6.737886 371.323575 C 2.425386 367.011074 -0.00169779 361.162115 -0.00169779 355.063156 L -0.00169779 23.000613 C -0.00169779 16.901654 2.425386 11.047487 6.737886 6.734986 C 11.050387 2.422485 16.899346 0.000610121 22.998305 0.000610121 Z M 22.998305 0.000610121 " stroke="#000000" stroke-width="8" stroke-opacity="1" stroke-miterlimit="4"/></g></g><g clip-path="url(#38828418be)"><g clip-path="url(#b9a075695a)"><path fill="#ffffff" d="M 99.015625 32.160156 L 315.988281 32.160156 L 315.988281 316.089844 L 99.015625 316.089844 Z M 99.015625 32.160156 " fill-opacity="1" fill-rule="nonzero"/></g></g><g clip-path="url(#483e53351f)"><g clip-path="url(#ee988536b6)"><path stroke-linecap="butt" transform="matrix(0.75, 0, 0, 0.75, 99.01784, 32.159485)" fill="none" stroke-linejoin="miter" d="M 22.99705 0.000894669 L 266.288748 0.000894669 C 272.387708 0.000894669 278.241875 2.42277 282.554376 6.735271 C 286.866876 11.047771 289.288751 16.901939 289.288751 23.000898 L 289.288751 355.063441 C 289.288751 361.1624 286.866876 367.011359 282.554376 371.323859 C 278.241875 375.641568 272.387708 378.063444 266.288748 378.063444 L 22.99705 378.063444 C 16.898091 378.063444 11.049132 375.641568 6.736631 371.323859 C 2.424131 367.011359 0.00225554 361.1624 0.00225554 355.063441 L 0.00225554 23.000898 C 0.00225554 16.901939 2.424131 11.047771 6.736631 6.735271 C 11.049132 2.42277 16.898091 0.000894669 22.99705 0.000894669 Z M 22.99705 0.000894669 " stroke="#000000" stroke-width="8" stroke-opacity="1" stroke-miterlimit="4"/></g></g><path stroke-linecap="butt" transform="matrix(0.75, 0.000000000000000687, -0.000000000000000687, 0.75, 129.820806, 89.463165)" fill="none" stroke-linejoin="miter" d="M -0.000657434 3.502239 L 62.061847 3.502239 " stroke="#000000" stroke-width="7" stroke-opacity="1" stroke-miterlimit="4"/><path stroke-linecap="butt" transform="matrix(0.75, 0, 0, 0.75, 129.820806, 157.393319)" fill="none" stroke-linejoin="miter" d="M -0.000657434 3.501616 L 62.061847 3.501616 " stroke="#000000" stroke-width="7" stroke-opacity="1" stroke-miterlimit="4"/><path stroke-linecap="butt" transform="matrix(0.75, 0.000000000000000687, -0.000000000000000687, 0.75, 129.820806, 225.321811)" fill="none" stroke-linejoin="miter" d="M -0.000657434 3.498002 L 62.061847 3.498002 " stroke="#000000" stroke-width="7" stroke-opacity="1" stroke-miterlimit="4"/><path stroke-linecap="butt" transform="matrix(0.75, 0, 0, 0.75, 129.820806, 114.924067)" fill="none" stroke-linejoin="miter" d="M -0.000657434 3.502286 L 206.712898 3.502286 " stroke="#000000" stroke-width="7" stroke-opacity="1" stroke-miterlimit="4"/><path stroke-linecap="butt" transform="matrix(0.75, 0, 0, 0.75, 129.820806, 250.934192)" fill="none" stroke-linejoin="miter" d="M -0.000657434 3.499203 L 206.712898 3.499203 " stroke="#000000" stroke-width="7" stroke-opacity="1" stroke-miterlimit="4"/><path stroke-linecap="butt" transform="matrix(0.75, 0, 0, 0.75, 129.820806, 183.0057)" fill="none" stroke-linejoin="miter" d="M -0.000657434 3.497609 L 206.712898 3.497609 " stroke="#000000" stroke-width="7" stroke-opacity="1" stroke-miterlimit="4"/></svg>